<svg width="32" height="33" viewBox="0 0 32 33" fill="none" xmlns="http://www.w3.org/2000/svg">
<g clip-path="url(#clip0_883_3876)">
<mask id="mask0_883_3876" style="mask-type:luminance" maskUnits="userSpaceOnUse" x="0" y="0" width="32" height="33">
<path d="M32 0.078125H0V32.0781H32V0.078125Z" fill="white"/>
</mask>
<g mask="url(#mask0_883_3876)">
<path d="M32 0.078125H0V32.0781H32V0.078125Z" fill="white"/>
<path d="M15.875 32.3431C24.7887 32.3431 32.0147 25.1174 32.0147 16.2036C32.0147 7.28992 24.7887 0.0639648 15.875 0.0639648C6.96137 0.0639648 -0.264587 7.28992 -0.264587 16.2036C-0.264587 25.1174 6.96137 32.3431 15.875 32.3431Z" fill="black"/>
<path d="M15.875 41.0781C29.613 41.0781 40.75 29.9411 40.75 16.2031C40.75 2.46504 29.613 -8.67188 15.875 -8.67188C2.13692 -8.67188 -9 2.46504 -9 16.2031C-9 29.9411 2.13692 41.0781 15.875 41.0781Z" fill="#356AE6"/>
<path d="M22.3643 17.3969C22.7748 17.0984 22.9054 16.7252 22.9054 16.3521V16.1841C22.9054 15.811 22.7002 15.5124 22.3643 15.2699C22.0845 15.0646 11.9342 8.01172 11.9342 8.01172V9.50439C11.9342 10.0268 12.2141 10.1948 12.5686 10.456C13.0724 10.8105 21.0023 16.3148 21.0023 16.3148C21.0023 16.3148 12.9791 21.8937 12.494 22.2109C11.9902 22.5467 11.9342 22.7706 11.9342 23.1998V24.5991C11.9342 24.6178 21.9165 17.7141 22.3643 17.3969Z" fill="white"/>
<path d="M11.9342 12.9941V14.0203C11.9342 14.0203 15.0689 16.2034 15.6846 16.6138C16.207 16.9497 16.6362 16.931 17.1773 16.5392C17.3825 16.3899 17.6064 16.2407 17.8117 16.0914C17.8117 16.0914 13.2403 12.9195 12.7552 12.6023C12.3447 12.3597 11.9342 12.5276 11.9342 12.9941Z" fill="white"/>
</g>
</g>
<defs>
<clipPath id="clip0_883_3876">
<rect width="32" height="32" fill="white" transform="translate(0 0.078125)"/>
</clipPath>
</defs>
</svg>
