<svg width="56" height="56" viewBox="0 0 56 56" fill="none" xmlns="http://www.w3.org/2000/svg">
<g clip-path="url(#clip0_2_12451)">
<path fill-rule="evenodd" clip-rule="evenodd" d="M28 0.5C12.5304 0.5 0 13.1162 0 28.6918C0 41.1523 8.02701 51.709 19.1479 55.4472C20.5402 55.7068 21.0559 54.8415 21.0559 54.08C21.0559 53.405 21.0387 51.6398 21.0215 49.2862C13.2351 50.9822 11.585 45.5134 11.585 45.5134C10.3131 42.2599 8.47391 41.3945 8.47391 41.3945C5.93002 39.6466 8.66298 39.6812 8.66298 39.6812C11.4647 39.8889 12.9601 42.5887 12.9601 42.5887C15.4524 46.8979 19.5089 45.6519 21.1074 44.925C21.3653 43.1079 22.0872 41.8618 22.8778 41.1523C16.6556 40.4427 10.124 38.0198 10.124 27.2208C10.124 24.1403 11.2069 21.6309 13.0117 19.658C12.7195 18.9484 11.7569 16.0756 13.2867 12.199C13.2867 12.199 15.6415 11.4375 20.9871 15.0891C23.2216 14.4661 25.6108 14.1546 28 14.1373C30.372 14.1373 32.7784 14.4661 35.0129 15.0891C40.3585 11.4375 42.7133 12.199 42.7133 12.199C44.2431 16.0756 43.2805 18.9484 42.9883 19.658C44.7759 21.6309 45.8588 24.1403 45.8588 27.2208C45.8588 38.0545 39.31 40.4254 33.0706 41.135C34.0675 42.0003 34.9785 43.7309 34.9785 46.3614C34.9785 50.1342 34.9441 53.1628 34.9441 54.0973C34.9441 54.8588 35.4426 55.7241 36.8692 55.4472C47.9902 51.709 56 41.1523 56 28.7091C56 13.1162 43.4696 0.5 28 0.5Z" fill="white"/>
</g>
<defs>
<clipPath id="clip0_2_12451">
<rect width="56" height="55" fill="white" transform="translate(0 0.5)"/>
</clipPath>
</defs>
</svg>
