<svg width="537" height="437" viewBox="0 0 537 437" fill="none" xmlns="http://www.w3.org/2000/svg">
<path fill-rule="evenodd" clip-rule="evenodd" d="M482.897 0.955911H535.489V48.4487H482.897V0.955911ZM481.941 49.4046V96.8975H429.347V49.4046H481.941ZM481.941 145.347V97.8544H429.347V145.347H481.941ZM481.941 146.303V193.796H429.347V146.303H481.941ZM481.941 242.245V194.752H429.347V242.245H481.941ZM481.941 243.202V290.694H429.347V243.202H481.941ZM481.941 339.143V291.65H429.347V339.143H481.941ZM481.941 340.099V387.592H429.347V340.099H481.941ZM481.941 436.041V388.548H429.347V436.041H481.941ZM482.897 436.041H535.489V388.548H482.897V436.041ZM535.967 436.519H536.445V0.47846H535.967V0H0.478158V0.47846H0V436.519H0.478158V436.998H535.967V436.519ZM0.956216 436.041V388.548H53.5489V436.041H0.956216ZM54.5051 436.041V388.548H107.098V436.041H54.5051ZM108.055 436.041V388.548H160.647V436.041H108.055ZM161.603 436.041V388.548H214.195V436.041H161.603ZM215.152 436.041V388.548H267.744V436.041H215.152ZM268.7 436.041V388.548H321.294V436.041H268.7ZM322.25 436.041V388.548H374.842V436.041H322.25ZM375.799 436.041V388.548H428.391V436.041H375.799ZM428.391 340.099V387.592H375.799V340.099H428.391ZM374.842 340.099V387.592H322.25V340.099H374.842ZM321.294 340.099V387.592H268.7V340.099H321.294ZM267.744 340.099V387.592H215.152V340.099H267.744ZM214.195 340.099V387.592H161.603V340.099H214.195ZM160.647 340.099V387.592H108.055V340.099H160.647ZM107.098 340.099V387.592H54.5051V340.099H107.098ZM53.5489 340.099V387.592H0.956216V340.099H53.5489ZM482.897 387.592H535.489V340.099H482.897V387.592ZM428.391 339.143V291.65H375.799V339.143H428.391ZM374.842 339.143V291.65H322.25V339.143H374.842ZM321.294 339.143V291.65H268.7V339.143H321.294ZM267.744 339.143V291.65H215.152V339.143H267.744ZM214.195 339.143V291.65H161.603V339.143H214.195ZM160.647 339.143V291.65H108.055V339.143H160.647ZM107.098 339.143V291.65H54.5051V339.143H107.098ZM53.5489 339.143V291.65H0.956216V339.143H53.5489ZM535.489 339.143H482.897V291.65H535.489V339.143ZM428.391 243.202V290.694H375.799V243.202H428.391ZM374.842 243.202V290.694H322.25V243.202H374.842ZM321.294 243.202V290.694H268.7V243.202H321.294ZM267.744 243.202V290.694H215.152V243.202H267.744ZM214.195 243.202V290.694H161.603V243.202H214.195ZM160.647 243.202V290.694H108.055V243.202H160.647ZM107.098 243.202V290.694H54.5051V243.202H107.098ZM53.5489 243.202V290.694H0.956216V243.202H53.5489ZM482.897 290.694H535.489V243.202H482.897V290.694ZM428.391 242.245V194.752H375.799V242.245H428.391ZM374.842 242.245V194.752H322.25V242.245H374.842ZM321.294 242.245V194.752H268.7V242.245H321.294ZM267.744 242.245V194.752H215.152V242.245H267.744ZM214.195 242.245V194.752H161.603V242.245H214.195ZM160.647 242.245V194.752H108.055V242.245H160.647ZM107.098 242.245V194.752H54.5051V242.245H107.098ZM53.5489 242.245V194.752H0.956216V242.245H53.5489ZM535.489 242.245H482.897V194.752H535.489V242.245ZM428.391 146.303V193.796H375.799V146.303H428.391ZM374.842 146.303V193.796H322.25V146.303H374.842ZM321.294 146.303V193.796H268.7V146.303H321.294ZM267.744 146.303V193.796H215.152V146.303H267.744ZM214.195 146.303V193.796H161.603V146.303H214.195ZM160.647 146.303V193.796H108.055V146.303H160.647ZM107.098 146.303V193.796H54.5051V146.303H107.098ZM53.5489 146.303V193.796H0.956216V146.303H53.5489ZM482.897 193.796H535.489V146.303H482.897V193.796ZM428.391 145.347V97.8544H375.799V145.347H428.391ZM374.842 145.347V97.8544H322.25V145.347H374.842ZM321.294 145.347V97.8544H268.7V145.347H321.294ZM267.744 145.347V97.8544H215.152V145.347H267.744ZM214.195 145.347V97.8544H161.603V145.347H214.195ZM160.647 145.347V97.8544H108.055V145.347H160.647ZM107.098 145.347V97.8544H54.5051V145.347H107.098ZM53.5489 145.347V97.8544H0.956216V145.347H53.5489ZM535.489 145.347H482.897V97.8544H535.489V145.347ZM428.391 49.4046V96.8975H375.799V49.4046H428.391ZM374.842 49.4046V96.8975H322.25V49.4046H374.842ZM321.294 49.4046V96.8975H268.7V49.4046H321.294ZM267.744 49.4046V96.8975H215.152V49.4046H267.744ZM214.195 49.4046V96.8975H161.603V49.4046H214.195ZM160.647 49.4046V96.8975H108.055V49.4046H160.647ZM107.098 49.4046V96.8975H54.5051V49.4046H107.098ZM53.5489 49.4046V96.8975H0.956216V49.4046H53.5489ZM482.897 96.8975H535.489V49.4046H482.897V96.8975ZM481.941 48.4487V0.955911H429.347V48.4487H481.941ZM428.391 48.4487V0.955911H375.799V48.4487H428.391ZM374.842 48.4487V0.955911H322.25V48.4487H374.842ZM321.294 48.4487V0.955911H268.7V48.4487H321.294ZM267.744 48.4487V0.955911H215.152V48.4487H267.744ZM214.195 48.4487V0.955911H161.603V48.4487H214.195ZM160.647 48.4487V0.955911H108.055V48.4487H160.647ZM107.098 48.4487V0.955911H54.5051V48.4487H107.098ZM53.5489 48.4487V0.955911H0.956216V48.4487H53.5489Z" fill="url(#paint0_radial_18_29619)"/>
<defs>
<radialGradient id="paint0_radial_18_29619" cx="0" cy="0" r="1" gradientUnits="userSpaceOnUse" gradientTransform="translate(304.007 214.902) rotate(90) scale(191.343 261.684)">
<stop offset="0.298618" stop-color="#22262F"/>
<stop offset="1" stop-color="#22262F" stop-opacity="0"/>
</radialGradient>
</defs>
</svg>
