<svg width="74" height="72" viewBox="0 0 74 72" fill="none" xmlns="http://www.w3.org/2000/svg">
<rect width="74" height="72" rx="12" fill="#24292F"/>
<g clip-path="url(#clip0_2_12450)">
<path fill-rule="evenodd" clip-rule="evenodd" d="M37 8.5C21.5304 8.5 9 21.1162 9 36.6918C9 49.1523 17.027 59.709 28.1479 63.4472C29.5402 63.7068 30.0559 62.8415 30.0559 62.08C30.0559 61.405 30.0387 59.6398 30.0215 57.2862C22.2351 58.9822 20.585 53.5134 20.585 53.5134C19.3131 50.2599 17.4739 49.3945 17.4739 49.3945C14.93 47.6466 17.663 47.6812 17.663 47.6812C20.4647 47.8889 21.9601 50.5887 21.9601 50.5887C24.4524 54.8979 28.5089 53.6519 30.1074 52.925C30.3653 51.1079 31.0872 49.8618 31.8778 49.1523C25.6556 48.4427 19.124 46.0198 19.124 35.2208C19.124 32.1403 20.2069 29.6309 22.0117 27.658C21.7195 26.9484 20.7569 24.0756 22.2867 20.199C22.2867 20.199 24.6415 19.4375 29.9871 23.0891C32.2216 22.4661 34.6108 22.1546 37 22.1373C39.372 22.1373 41.7784 22.4661 44.0129 23.0891C49.3585 19.4375 51.7133 20.199 51.7133 20.199C53.2431 24.0756 52.2805 26.9484 51.9883 27.658C53.7759 29.6309 54.8588 32.1403 54.8588 35.2208C54.8588 46.0545 48.31 48.4254 42.0706 49.135C43.0675 50.0003 43.9785 51.7309 43.9785 54.3614C43.9785 58.1342 43.9441 61.1628 43.9441 62.0973C43.9441 62.8588 44.4426 63.7241 45.8692 63.4472C56.9902 59.709 65 49.1523 65 36.7091C65 21.1162 52.4696 8.5 37 8.5Z" fill="white"/>
</g>
<defs>
<clipPath id="clip0_2_12450">
<rect width="56" height="55" fill="white" transform="translate(9 8.5)"/>
</clipPath>
</defs>
</svg>
