<svg width="19" height="18" viewBox="0 0 19 18" fill="none" xmlns="http://www.w3.org/2000/svg">
<g clip-path="url(#clip0_3_15766)">
<path d="M3.94 2.0009C3.93982 2.39898 3.82085 2.78795 3.59832 3.11802C3.37579 3.4481 3.05982 3.70425 2.69086 3.8537C2.3219 4.00315 1.91673 4.0391 1.52722 3.95694C1.13771 3.87478 0.781583 3.67825 0.504416 3.39252C0.22725 3.10678 0.0416586 2.74483 -0.028602 2.353C-0.0988625 1.96117 -0.0505953 1.55728 0.110021 1.19304C0.270638 0.828805 0.536296 0.520783 0.872991 0.308406C1.20969 0.0960283 1.6021 -0.0110419 2 0.000900509C2.51996 0.0165064 3.01339 0.23409 3.37558 0.607484C3.73778 0.980879 3.94023 1.4807 3.94 2.0009ZM4 5.4809H-3.72529e-07V18.0009H4V5.4809ZM10.32 5.4809H6.34V18.0009H10.28V11.4309C10.28 7.7709 15.05 7.4309 15.05 11.4309V18.0009H19V10.0709C19 3.9009 11.94 4.1309 10.28 7.1609L10.32 5.4809Z" fill="#959DA5"/>
</g>
<defs>
<clipPath id="clip0_3_15766">
<rect width="19" height="18" fill="white"/>
</clipPath>
</defs>
</svg>
