<svg width="22" height="18" viewBox="0 0 22 18" fill="none" xmlns="http://www.w3.org/2000/svg">
<g clip-path="url(#clip0_3_15760)">
<path d="M22 2.1743C21.1778 2.54092 20.3043 2.77963 19.4099 2.88216C20.3537 2.32058 21.0601 1.43394 21.3967 0.388562C20.5082 0.913004 19.5372 1.28291 18.525 1.48253C17.9059 0.822988 17.1027 0.364777 16.2199 0.167358C15.337 -0.0300612 14.4152 0.0424259 13.5741 0.375413C12.7329 0.708399 12.0113 1.28651 11.5028 2.03473C10.9943 2.78295 10.7225 3.66673 10.7225 4.57138C10.7215 4.91817 10.762 5.26384 10.8431 5.60099C9.04843 5.51005 7.29277 5.04352 5.68965 4.23156C4.08653 3.41961 2.67162 2.2803 1.53638 0.887282C0.958857 1.88099 0.782115 3.05756 1.04219 4.17709C1.30227 5.29662 1.97958 6.27479 2.93601 6.91214C2.21991 6.88943 1.51952 6.69641 0.89287 6.34907V6.40538C0.892853 7.44729 1.25332 8.45712 1.9131 9.26352C2.57287 10.0699 3.49133 10.6232 4.51261 10.8295C4.12481 10.9364 3.72438 10.9905 3.32212 10.9904C3.03613 10.9879 2.75088 10.961 2.46947 10.91C2.75802 11.8066 3.31924 12.5908 4.07484 13.1532C4.83044 13.7155 5.74274 14.028 6.68446 14.0471C5.08433 15.2999 3.11013 15.9797 1.07788 15.9776C0.717662 15.9764 0.357796 15.955 0 15.9132C2.06354 17.2389 4.46505 17.9426 6.91773 17.9403C15.219 17.9403 19.7558 11.0628 19.7558 5.10227C19.7558 4.90922 19.7477 4.70812 19.7397 4.51507C20.6263 3.87547 21.3918 3.08279 22 2.1743Z" fill="#959DA5"/>
</g>
<defs>
<clipPath id="clip0_3_15760">
<rect width="22" height="17.8815" fill="white" transform="translate(0 0.0585938)"/>
</clipPath>
</defs>
</svg>
