<svg width="23" height="16" viewBox="0 0 23 16" fill="none" xmlns="http://www.w3.org/2000/svg">
<g clip-path="url(#clip0_3_15769)">
<path d="M22.3059 2.50491C22.1817 2.02576 21.9337 1.58768 21.5868 1.23459C21.2399 0.8815 20.8063 0.625807 20.3294 0.493147C18.5647 -0.000970882 11.4941 -0.000970881 11.4941 -0.000970881C8.54583 -0.0364018 5.59838 0.120796 2.67059 0.469617C2.19355 0.611974 1.76065 0.873555 1.41278 1.22967C1.0649 1.58578 0.813513 2.02467 0.682353 2.50491C0.366044 4.31896 0.212492 6.15765 0.22353 7.99903C0.211735 9.84044 0.365292 11.6792 0.682353 13.4931C0.810814 13.9721 1.06166 14.4094 1.41024 14.7621C1.75883 15.1149 2.19316 15.3708 2.67059 15.5049C4.45882 15.999 11.4941 15.999 11.4941 15.999C14.4463 16.0345 17.3977 15.8773 20.3294 15.5284C20.8063 15.3958 21.2399 15.1401 21.5868 14.787C21.9337 14.4339 22.1817 13.9958 22.3059 13.5167C22.6302 11.7035 22.7877 9.86446 22.7765 8.02256C22.8008 6.17237 22.6432 4.32427 22.3059 2.50491ZM9.24706 11.4226V4.5755L15.1294 7.99903L9.24706 11.4226Z" fill="#959DA5"/>
</g>
<defs>
<clipPath id="clip0_3_15769">
<rect width="22.5529" height="16" fill="white" transform="translate(0.22353)"/>
</clipPath>
</defs>
</svg>
